<?xml version="1.0" standalone="no"?>
<!DOCTYPE svg PUBLIC "-//W3C//DTD SVG 20010904//EN"
 "http://www.w3.org/TR/2001/REC-SVG-20010904/DTD/svg10.dtd">
<svg version="1.0" xmlns="http://www.w3.org/2000/svg"
 width="4500.000000pt" height="4500.000000pt" viewBox="0 0 4500.000000 4500.000000"
 preserveAspectRatio="xMidYMid meet">

<g transform="translate(0.000000,4500.000000) scale(0.100000,-0.100000)"
fill="#000000" stroke="none">
<path d="M0 22500 l0 -22500 22500 0 22500 0 0 22500 0 22500 -22500 0 -22500
0 0 -22500z m13473 7553 c-7 -2 -19 -2 -25 0 -7 3 -2 5 12 5 14 0 19 -2 13 -5z
m-356 -9 c-3 -3 -12 -4 -19 -1 -8 3 -5 6 6 6 11 1 17 -2 13 -5z m-279 -31
c-10 -2 -28 -2 -40 0 -13 2 -5 4 17 4 22 1 32 -1 23 -4z m-85 -10 c-13 -2 -33
-2 -45 0 -13 2 -3 4 22 4 25 0 35 -2 23 -4z m1294 1 c-3 -3 -12 -4 -19 -1 -8
3 -5 6 6 6 11 1 17 -2 13 -5z m-1377 -14 c-12 -7 -10 -11 10 -20 l25 -11 -25
6 c-31 7 -81 14 -57 8 28 -7 20 -23 -12 -23 -29 0 -49 15 -37 28 4 3 25 9 49
13 61 10 63 10 47 -1z m140 0 c8 -5 11 -10 5 -10 -5 0 -17 5 -25 10 -8 5 -10
10 -5 10 6 0 17 -5 25 -10z m63 3 c-7 -2 -21 -2 -30 0 -10 3 -4 5 12 5 17 0
24 -2 18 -5z m-113 -7 c0 -8 -51 -13 -56 -5 -3 5 9 9 25 9 17 0 31 -2 31 -4z
m-214 -21 c-22 -17 -36 -18 -63 -8 -16 7 7 14 72 21 6 1 1 -5 -9 -13z m327 8
c-7 -2 -19 -2 -25 0 -7 3 -2 5 12 5 14 0 19 -2 13 -5z m-85 -10 c-10 -2 -26
-2 -35 0 -10 3 -2 5 17 5 19 0 27 -2 18 -5z m-345 -27 c-4 -6 1 -5 10 2 22 19
36 8 35 -28 -1 -25 -5 -30 -25 -30 -12 0 -23 5 -23 12 0 6 -3 8 -6 5 -4 -3
-14 -2 -23 3 -10 5 -31 5 -51 -1 l-35 -9 38 5 c27 3 36 0 31 -8 -4 -7 -4 -9 1
-5 4 4 14 1 22 -7 8 -8 25 -15 39 -15 13 0 25 -3 25 -7 8 -46 5 -53 -18 -53
-17 0 -23 5 -21 16 2 10 -3 19 -11 22 -9 3 -11 0 -6 -8 6 -10 4 -12 -8 -7 -12
5 -17 1 -17 -13 0 -17 7 -20 40 -20 l40 0 -2 -1130 c-3 -987 -1 -1130 12
-1135 12 -5 12 -7 0 -15 -10 -6 -18 -2 -28 11 -17 24 -54 21 -58 -5 -2 -14 3
-17 25 -14 15 2 33 -2 39 -8 9 -10 5 -15 -16 -23 -26 -11 -26 -11 8 -7 19 2
44 0 55 -4 17 -6 9 -12 -43 -38 -36 -18 -70 -29 -80 -25 -9 3 -14 3 -10 -2 4
-4 -41 -37 -100 -72 -59 -35 -119 -73 -134 -84 -30 -21 -43 -24 -32 -8 4 8 0
8 -15 0 -25 -14 -28 -22 -3 -15 12 4 11 1 -5 -11 -12 -9 -32 -25 -44 -36 -25
-22 -44 -25 -33 -6 4 7 3 9 -2 4 -5 -5 -9 -14 -9 -20 0 -7 -12 -11 -25 -9 -17
1 -21 -1 -12 -6 10 -7 2 -19 -30 -47 -24 -21 -75 -68 -115 -106 -52 -49 -77
-67 -90 -63 -11 4 -14 3 -6 -3 8 -6 6 -15 -9 -32 -16 -21 -21 -22 -29 -10 -7
10 -8 8 -7 -11 2 -16 -2 -24 -10 -22 -8 1 -11 -2 -8 -7 3 -5 0 -14 -8 -20 -8
-7 -16 -8 -18 -4 -3 4 -3 2 -1 -6 5 -20 -26 -51 -45 -44 -15 4 -15 3 -2 -6 10
-7 11 -14 5 -18 -6 -5 -33 -38 -60 -75 -27 -38 -50 -68 -51 -68 -2 0 -9 7 -17
15 -13 13 -16 13 -21 -1 -3 -8 -2 -13 2 -10 4 2 14 1 21 -3 11 -7 8 -16 -11
-45 -14 -20 -28 -33 -33 -28 -5 4 -6 2 -2 -3 3 -6 -10 -37 -29 -70 -18 -33
-34 -55 -34 -50 -1 14 -40 -34 -40 -49 0 -6 5 -4 10 4 5 8 10 11 10 6 0 -11
-52 -108 -65 -121 -6 -5 -18 -19 -25 -29 -12 -15 -12 -18 -1 -12 10 7 12 3 6
-15 -9 -29 -25 -49 -25 -30 0 7 -5 9 -11 5 -8 -5 -8 -9 1 -14 9 -6 7 -24 -11
-76 -12 -38 -26 -73 -30 -79 -3 -5 -17 -51 -30 -101 -18 -72 -26 -91 -39 -87
-13 4 -13 3 0 -5 12 -9 12 -15 1 -35 -7 -14 -10 -31 -6 -38 6 -8 4 -10 -5 -4
-10 6 -12 4 -7 -9 4 -9 0 -58 -9 -109 -9 -51 -16 -104 -16 -119 0 -16 -3 -28
-7 -28 -4 0 -9 -64 -10 -141 -1 -78 -3 -145 -5 -148 -3 -4 -1 -40 4 -81 4 -41
11 -118 15 -170 3 -52 8 -97 11 -101 3 -6 29 -134 38 -189 4 -24 35 -128 67
-221 16 -47 28 -92 26 -100 -2 -8 -2 -10 1 -5 3 5 16 -27 29 -70 13 -43 28
-88 33 -99 5 -11 17 -47 26 -80 9 -33 19 -67 21 -75 2 -8 -3 -4 -12 10 -12 18
-14 19 -9 5 3 -11 10 -33 14 -50 7 -28 8 -29 10 -5 1 14 23 -39 50 -120 49
-144 60 -192 40 -160 -5 8 -10 10 -10 4 0 -6 9 -19 20 -29 11 -10 22 -27 25
-39 28 -97 58 -194 66 -208 12 -24 12 -26 -8 -31 -16 -4 -15 -6 3 -12 16 -5
29 -30 55 -113 18 -59 32 -113 31 -119 -2 -7 1 -13 6 -13 5 0 14 -17 20 -39
14 -46 15 -61 2 -41 -6 9 -10 10 -10 3 0 -7 6 -16 14 -20 7 -4 30 -56 50 -116
40 -119 40 -121 26 -112 -17 11 -11 -4 11 -26 16 -16 20 -29 15 -53 -4 -22 -3
-27 4 -16 8 12 10 11 10 -6 0 -11 5 -25 11 -31 5 -5 10 -29 11 -53 0 -23 3
-37 7 -32 8 13 134 -370 134 -405 0 -13 3 -20 8 -17 9 5 13 -13 11 -56 -1 -14
1 -19 5 -11 8 20 84 -209 78 -239 -2 -14 -2 -19 2 -11 8 20 44 -99 37 -124 -4
-15 -3 -16 4 -6 7 10 14 0 26 -36 9 -28 15 -56 13 -64 -2 -8 -2 -10 1 -6 6 13
83 -225 77 -241 -2 -7 -1 -11 4 -7 5 3 12 -9 16 -27 9 -41 43 -146 57 -175 6
-11 7 -26 4 -32 -4 -6 -2 -11 4 -11 8 0 9 -11 5 -32 -4 -22 -3 -28 3 -19 7 9
15 -3 29 -47 14 -45 17 -64 9 -73 -8 -9 -8 -10 2 -5 8 5 12 -2 12 -26 0 -25 3
-29 10 -18 8 13 10 13 10 -2 0 -18 45 -168 61 -203 4 -11 22 -65 39 -120 17
-55 35 -108 40 -117 6 -11 6 -19 0 -23 -14 -9 -12 -25 3 -25 7 0 26 -46 45
-106 28 -87 31 -108 21 -120 -12 -14 -14 -14 -26 2 -7 10 -13 32 -13 48 0 24
-3 27 -10 16 -11 -17 -13 -6 -3 28 8 31 23 9 23 -35 0 -17 5 -35 10 -38 6 -3
10 0 10 7 0 16 -24 104 -38 138 -9 23 -10 22 -10 -15 0 -22 -3 -61 -7 -87 -4
-26 -4 -59 -1 -74 7 -25 8 -26 22 -8 12 14 14 15 11 3 -4 -11 1 -15 17 -15 11
1 20 -3 19 -9 0 -5 5 -16 13 -23 17 -15 17 -12 4 22 -5 14 -6 26 -1 26 5 0 11
-12 14 -27 3 -16 9 -37 12 -48 6 -16 5 -17 -4 -5 -15 21 -15 -1 1 -52 9 -29 9
-41 0 -50 -13 -13 -16 -5 -12 46 1 24 -1 28 -16 22 -9 -4 -20 -3 -23 2 -3 5
-16 12 -28 16 -22 7 -23 5 -23 -47 0 -46 3 -55 20 -60 19 -5 29 8 11 15 -5 2
-11 17 -13 33 -2 22 1 30 12 30 10 0 16 -13 18 -40 4 -47 18 -67 32 -45 8 13
10 13 10 -2 0 -27 -11 -48 -26 -48 -8 0 -14 7 -14 15 0 16 -29 10 -42 -9 -4
-6 -8 -976 -8 -2156 l-1 -2145 -49 -38 c-57 -44 -38 -52 -184 79 -50 45 -90
86 -89 92 1 5 -5 9 -14 8 -9 0 -18 5 -21 13 -3 8 0 11 7 7 6 -4 11 -3 11 3 0
16 -18 22 -23 9 -5 -15 -18 -6 -21 14 -3 21 -17 39 -25 33 -5 -2 -35 25 -67
62 -60 67 -77 92 -54 78 9 -5 11 -4 6 4 -4 6 -11 9 -16 6 -4 -3 -39 37 -77 88
-100 134 -124 174 -117 194 5 14 4 15 -4 4 -12 -17 -11 -17 -130 221 -40 81
-92 204 -115 275 -24 71 -47 135 -52 142 -4 8 -2 16 5 21 10 6 9 10 -1 16 -8
5 -20 26 -28 48 -11 32 -11 40 0 48 11 7 9 8 -5 4 -16 -6 -18 -2 -12 31 4 25
3 31 -3 18 -7 -17 -10 -15 -20 20 -6 22 -11 48 -11 57 0 9 -5 18 -12 20 -6 2
-11 25 -11 53 0 27 -3 41 -6 32 -4 -11 -20 25 -45 98 -21 64 -35 123 -32 131
3 8 2 13 -3 10 -8 -5 -51 116 -51 145 0 8 -4 19 -9 25 -8 8 -51 137 -51 153 0
3 5 -1 10 -9 5 -8 10 -10 10 -5 0 14 -20 43 -20 30 0 -5 -10 15 -20 45 -11 30
-17 63 -14 75 4 14 2 16 -4 7 -6 -9 -16 11 -31 65 -12 43 -27 88 -33 99 -5 12
-11 33 -11 47 -1 14 -4 24 -6 22 -4 -5 -27 63 -141 415 -40 124 -85 264 -101
312 -16 49 -26 95 -22 105 4 9 2 14 -3 10 -9 -5 -104 272 -104 304 0 8 -4 19
-9 25 -5 5 -23 56 -40 114 -18 58 -36 113 -42 122 -12 24 -12 26 9 31 15 4 14
6 -4 12 -15 5 -27 26 -43 76 -12 39 -20 77 -17 85 3 8 2 13 -3 10 -9 -6 -26
40 -22 62 1 6 -2 12 -7 12 -6 0 -13 12 -16 28 -4 15 -9 36 -12 47 -4 16 -3 17
5 5 8 -11 9 -4 4 24 -4 28 -3 37 5 32 8 -5 8 1 1 22 -10 29 -39 40 -39 16 0
-8 6 -11 17 -7 13 5 15 2 10 -18 -4 -13 -7 -31 -7 -39 -2 -30 -120 324 -120
359 0 9 -4 21 -9 27 -8 8 -51 137 -51 153 0 3 5 -1 10 -9 5 -8 10 -10 10 -5 0
14 -20 42 -20 30 -2 -16 -90 247 -89 265 0 8 7 -1 14 -20 11 -28 14 -31 14
-12 1 13 -11 34 -26 48 -20 18 -27 35 -27 61 0 20 -2 31 -4 24 -7 -21 -83 221
-76 243 3 13 2 16 -3 9 -6 -8 -32 60 -72 185 -34 108 -67 207 -73 219 -6 12
-11 35 -12 52 -1 16 -3 28 -5 26 -6 -6 -131 374 -131 398 0 7 4 6 10 -3 5 -8
10 -11 10 -6 0 4 -12 22 -26 39 -15 17 -23 38 -21 49 3 10 2 18 -2 18 -5 0
-18 35 -30 78 -12 42 -25 84 -29 92 -3 8 -6 20 -7 25 0 6 -3 15 -6 20 -4 6
-18 48 -33 95 -15 47 -31 93 -36 102 -5 10 -7 24 -4 33 3 8 1 15 -5 15 -6 0
-10 3 -9 8 1 4 -4 20 -10 35 -15 35 -16 58 -2 37 6 -9 10 -10 10 -3 0 7 -6 16
-14 20 -7 4 -30 56 -50 116 -38 114 -42 131 -25 107 9 -12 10 -12 5 3 -3 10
-6 28 -7 40 0 21 -1 21 -9 2 -7 -18 -8 -18 -15 7 -4 15 -4 32 1 39 4 8 3 9 -4
5 -8 -4 -12 0 -12 11 0 11 -5 24 -11 30 -6 6 -12 30 -13 52 0 22 -3 35 -7 30
-3 -6 -20 36 -37 93 -17 57 -43 137 -57 178 -15 42 -23 85 -20 100 3 14 0 32
-5 40 -8 11 -9 7 -4 -14 5 -21 4 -27 -5 -22 -6 4 -11 13 -11 19 0 7 -20 73
-44 147 -77 238 -95 305 -90 330 4 21 3 22 -4 5 -7 -15 -22 20 -65 154 -31 95
-53 180 -50 188 4 10 2 14 -4 10 -12 -7 -51 124 -68 228 -2 11 -8 36 -14 55
-14 43 -14 43 2 34 9 -6 9 -5 0 7 -7 8 -15 33 -18 54 -5 40 -7 57 -26 175 -10
69 -11 76 -29 240 -11 99 -20 537 -11 546 2 2 5 61 7 131 2 81 7 129 14 131 8
3 7 8 -1 18 -7 9 -8 18 -2 27 5 6 10 41 12 77 1 36 5 79 10 95 5 17 12 56 15
87 8 82 35 199 53 227 9 14 11 26 6 30 -6 3 0 45 14 101 13 52 29 113 34 135
5 22 13 49 18 60 4 11 21 62 37 112 20 63 34 93 44 93 12 0 12 2 2 9 -10 6
-11 13 -3 27 5 11 18 44 27 74 16 50 18 53 26 30 7 -22 7 -22 3 5 -6 44 82
255 104 247 13 -5 14 -3 4 9 -9 12 -4 30 27 91 21 42 41 74 44 71 3 -4 6 1 6
11 0 18 44 111 65 136 7 8 27 44 46 80 45 87 71 123 80 109 5 -8 8 -8 13 0 4
6 2 11 -3 11 -19 0 -12 17 29 79 28 41 45 59 55 55 8 -4 15 -1 15 6 0 6 -4 8
-10 5 -15 -9 -12 1 10 37 11 18 20 27 20 20 0 -7 5 -10 10 -7 6 4 8 10 5 15
-7 11 5 40 17 40 5 0 6 -5 2 -12 -4 -7 -3 -8 4 -4 6 4 9 13 6 20 -3 8 0 17 7
22 8 4 10 3 5 -4 -4 -7 -2 -12 4 -12 7 0 10 7 6 15 -3 9 11 37 35 68 22 28 60
78 84 109 54 72 73 91 84 84 5 -3 14 1 21 9 11 13 10 14 -6 8 -16 -6 -15 -2 5
26 13 18 29 30 37 27 7 -3 11 0 8 7 -4 12 40 62 54 62 4 0 6 3 5 7 -5 14 227
239 239 232 6 -4 8 -3 5 3 -8 13 39 57 52 49 6 -4 9 -1 5 7 -3 8 9 24 28 39
18 14 43 35 56 46 13 12 31 18 40 15 13 -4 14 -3 3 5 -10 7 -10 11 -1 17 7 4
17 1 22 -6 8 -11 9 -10 4 3 -4 13 11 30 52 62 31 25 68 55 81 66 14 11 31 18
38 15 14 -5 67 24 59 32 -2 3 -17 -4 -32 -14 -16 -10 -25 -13 -21 -6 15 24 97
72 115 67 13 -5 14 -4 3 4 -10 7 -10 11 -1 17 7 4 16 1 22 -6 7 -11 8 -10 6 5
-2 10 6 23 17 30 11 6 22 14 25 17 9 10 55 33 63 31 4 -1 7 2 7 7 0 7 125 88
155 100 5 2 22 12 37 23 16 11 33 16 39 12 7 -4 9 -3 6 3 -4 6 5 15 18 21 15
7 25 8 25 2 0 -6 4 -10 10 -10 5 0 6 8 3 17 -5 13 -2 15 11 10 9 -4 15 -3 12
1 -3 4 5 14 16 21 18 11 20 11 15 -3 -4 -9 -2 -16 3 -16 9 0 12 7 9 27 -1 9
174 92 183 87 4 -3 8 -2 8 3 0 8 47 32 73 37 6 2 38 15 69 30 38 18 66 25 80
21 15 -4 19 -3 10 3 -9 6 0 14 33 26 25 10 49 15 52 12 4 -3 0 -6 -7 -6 -7 0
-11 -3 -7 -6 3 -3 22 6 41 21 20 15 43 25 51 21 8 -3 15 -2 15 3 0 10 121 51
150 51 10 0 22 5 25 11 4 6 13 8 21 5 7 -3 16 -2 18 3 3 4 20 6 38 5 20 -2 25
-1 13 3 -13 4 16 15 90 34 116 29 169 34 158 15z m8437 -1839 c0 -2 -12 -14
-27 -28 l-28 -24 24 28 c23 25 31 32 31 24z m-80 -80 c0 -2 -10 -12 -22 -23
l-23 -19 19 23 c18 21 26 27 26 19z m-179 -200 l-24 -22 19 27 c10 14 21 24
23 22 3 -3 -6 -15 -18 -27z m-7694 -183 c-3 -3 -12 -4 -19 -1 -8 3 -5 6 6 6
11 1 17 -2 13 -5z m80 0 c-3 -3 -12 -4 -19 -1 -8 3 -5 6 6 6 11 1 17 -2 13 -5z
m43 -4 c-12 -7 -8 -10 15 -11 17 0 24 -3 17 -6 -7 -3 -25 -2 -39 2 -21 5 -24
8 -12 16 7 5 19 9 24 9 6 0 3 -5 -5 -10z m-120 -20 c0 -5 -7 -7 -15 -4 -8 4
-15 8 -15 10 0 2 7 4 15 4 8 0 15 -4 15 -10z m1037 4 c-3 -3 -12 -4 -19 -1 -8
3 -5 6 6 6 11 1 17 -2 13 -5z m-957 -14 c-34 -11 -60 -11 -35 0 11 5 29 8 40
8 16 0 15 -2 -5 -8z m-70 -15 c0 -2 -13 -5 -30 -7 -19 -3 -30 0 -30 7 0 7 11
10 30 7 17 -2 30 -5 30 -7z m-417 -33 c-1 -5 6 -8 17 -5 11 3 18 8 16 12 -2 3
16 7 40 7 24 1 44 -2 44 -7 0 -5 -6 -6 -13 -3 -8 3 -20 -2 -27 -11 -7 -8 -10
-16 -6 -16 14 -3 22 -5 41 -12 11 -4 38 0 60 8 22 8 31 14 21 15 -11 0 -16 3
-13 6 4 4 34 8 68 9 l61 1 -88 -27 c-49 -15 -107 -30 -128 -34 -25 -4 -35 -9
-27 -14 9 -6 6 -10 -11 -14 -29 -8 -70 2 -62 14 3 5 -1 9 -8 9 -7 1 -2 7 12
15 18 10 27 10 32 2 4 -6 10 -8 14 -4 10 10 1 17 -26 22 -27 5 -33 10 -36 31
-1 8 3 13 9 11 7 -3 11 -9 10 -15z m154 2 c-3 -3 -12 -4 -19 -1 -8 3 -5 6 6 6
11 1 17 -2 13 -5z m-242 -42 c-3 -3 -11 0 -18 7 -9 10 -8 11 6 5 10 -3 15 -9
12 -12z m7916 -79 c-12 -20 -14 -14 -5 12 4 9 9 14 11 11 3 -2 0 -13 -6 -23z
m-130 -236 c-10 -9 -11 -8 -5 6 3 10 9 15 12 12 3 -3 0 -11 -7 -18z m-34 -79
c-3 -8 -6 -5 -6 6 -1 11 2 17 5 13 3 -3 4 -12 1 -19z m-200 -590 c-3 -7 -5 -2
-5 12 0 14 2 19 5 13 2 -7 2 -19 0 -25z m-40 -190 c-3 -7 -5 -2 -5 12 0 14 2
19 5 13 2 -7 2 -19 0 -25z m-40 -370 c-3 -7 -5 -2 -5 12 0 14 2 19 5 13 2 -7
2 -19 0 -25z m0 -280 c-3 -7 -5 -2 -5 12 0 14 2 19 5 13 2 -7 2 -19 0 -25z
m74 -363 c5 4 6 -1 2 -10 -5 -13 -7 -14 -14 -3 -5 7 -8 18 -8 23 0 6 3 4 6 -3
2 -6 9 -10 14 -7z m7 -196 c-3 -8 -7 -3 -11 10 -4 17 -3 21 5 13 5 -5 8 -16 6
-23z m156 -479 l7 -25 -15 25 c-17 28 -21 50 -7 35 5 -6 12 -21 15 -35z m956
-20 c0 -5 -5 -10 -11 -10 -5 0 -7 5 -4 10 3 6 8 10 11 10 2 0 4 -4 4 -10z
m-80 -70 c0 -5 -5 -10 -11 -10 -5 0 -7 5 -4 10 3 6 8 10 11 10 2 0 4 -4 4 -10z
m-60 -54 c-4 -4 -16 -4 -26 2 -16 9 -14 10 8 9 15 -1 23 -6 18 -11z m-50 -6
c0 -5 -5 -10 -11 -10 -5 0 -7 5 -4 10 3 6 8 10 11 10 2 0 4 -4 4 -10z m-682
-35 c-3 -3 -9 2 -12 12 -6 14 -5 15 5 6 7 -7 10 -15 7 -18z m632 -39 c0 -2 -8
-10 -17 -17 -16 -13 -17 -12 -4 4 13 16 21 21 21 13z m-592 -41 c-3 -3 -9 2
-12 12 -6 14 -5 15 5 6 7 -7 10 -15 7 -18z m482 -29 c0 -2 -7 -7 -16 -10 -8
-3 -12 -2 -9 4 6 10 25 14 25 6z m-165 -86 c-3 -5 -12 -10 -18 -10 -7 0 -6 4
3 10 19 12 23 12 15 0z m-192 -87 c-3 -7 -6 -13 -8 -13 -2 0 -5 6 -8 13 -3 8
1 14 8 14 7 0 11 -6 8 -14z m147 -33 c0 -5 -5 -10 -11 -10 -5 0 -7 5 -4 10 3
6 8 10 11 10 2 0 4 -4 4 -10z m-40 -34 c0 -2 -8 -10 -17 -17 -16 -13 -17 -12
-4 4 13 16 21 21 21 13z m-40 -36 c0 -5 -2 -10 -4 -10 -3 0 -8 5 -11 10 -3 6
-1 10 4 10 6 0 11 -4 11 -10z m-25 -2490 c-21 -16 -40 -30 -43 -30 -10 0 62
59 72 60 5 0 -8 -13 -29 -30z m-45 -365 c0 -5 -5 -3 -10 5 -5 8 -10 20 -10 25
0 6 5 3 10 -5 5 -8 10 -19 10 -25z m120 -360 c0 -5 -5 -3 -10 5 -5 8 -10 20
-10 25 0 6 5 3 10 -5 5 -8 10 -19 10 -25z m830 -508 c0 -2 -10 -12 -22 -23
l-23 -19 19 23 c18 21 26 27 26 19z m-8853 -209 c-3 -8 -6 -5 -6 6 -1 11 2 17
5 13 3 -3 4 -12 1 -19z m8556 -51 c-52 -42 -68 -50 -28 -13 22 20 44 36 48 36
5 0 -4 -10 -20 -23z m-256 -29 c-3 -8 -6 -5 -6 6 -1 11 2 17 5 13 3 -3 4 -12
1 -19z m2 -78 c0 -9 -4 -8 -9 5 -5 11 -9 27 -9 35 0 9 4 8 9 -5 5 -11 9 -27 9
-35z m176 40 c-3 -5 -12 -10 -18 -10 -7 0 -6 4 3 10 19 12 23 12 15 0z m-8346
-87 c1 -14 -5 -23 -14 -23 -8 0 -15 7 -15 16 0 9 5 12 12 8 8 -5 9 -2 4 12 -4
10 -9 33 -12 49 -4 29 -4 29 10 -5 8 -19 15 -45 15 -57z m8277 62 c-9 -9 -16
-13 -16 -8 0 5 5 14 12 21 6 6 14 10 16 7 2 -2 -3 -11 -12 -20z m43 2 c-2 -1
-13 -9 -24 -17 -19 -14 -19 -14 -6 3 7 9 18 17 24 17 6 0 8 -1 6 -3z m-79 -60
c0 -2 -12 -14 -27 -28 l-28 -24 24 28 c23 25 31 32 31 24z m-8267 -57 c3 -11
1 -20 -4 -20 -5 0 -9 9 -9 20 0 11 2 20 4 20 2 0 6 -9 9 -20z m38 5 c8 19 9
19 6 1 -3 -29 -27 -33 -26 -4 1 20 2 21 7 3 l5 -20 8 20z m48 -131 c35 -108
34 -104 21 -104 -5 0 -10 12 -10 28 0 15 -5 34 -10 42 -7 11 -10 3 -10 -28 0
-27 -4 -41 -10 -37 -6 4 -8 11 -5 16 4 5 1 9 -4 9 -6 0 -11 8 -11 18 0 13 2
14 9 4 13 -20 22 39 11 74 -8 28 -8 28 -9 4 -2 -46 -18 -53 -19 -8 -2 39 5 78
13 78 2 0 17 -43 34 -96z m79 -249 c0 -5 -6 4 -13 20 -8 17 -14 37 -14 45 0 8
7 -1 14 -20 7 -19 13 -39 13 -45z m-121 -52 c-2 -21 -4 -6 -4 32 0 39 2 55 4
38 2 -18 2 -50 0 -70z m90 55 c-3 -8 -6 -5 -6 6 -1 11 2 17 5 13 3 -3 4 -12 1
-19z m-20 -40 c-3 -7 -5 -2 -5 12 0 14 2 19 5 13 2 -7 2 -19 0 -25z m55 9 c3
4 2 1 0 -7 -3 -8 -5 -27 -5 -42 0 -35 -3 -35 -22 1 -17 34 -11 68 10 51 7 -6
15 -7 17 -3z m15 -49 c-3 -7 -5 -2 -5 12 0 14 2 19 5 13 2 -7 2 -19 0 -25z
m-97 -23 c0 -8 -4 -15 -10 -15 -5 0 -10 7 -10 15 0 8 5 15 10 15 6 0 10 -7 10
-15z m54 0 c3 -8 1 -15 -4 -15 -6 0 -10 7 -10 15 0 8 2 15 4 15 2 0 6 -7 10
-15z m91 -97 c8 -28 13 -53 11 -56 -3 -2 -10 15 -16 38 -6 23 -14 48 -17 56
-3 8 -3 14 1 14 3 0 12 -23 21 -52z m9 -143 c-4 -8 -11 -15 -16 -15 -7 0 -7 4
0 13 7 8 7 18 2 27 -6 8 -9 26 -9 40 0 21 3 19 14 -13 8 -21 12 -44 9 -52z
m24 20 c0 -16 -2 -15 -8 5 -11 34 -11 60 0 35 5 -11 8 -29 8 -40z m19 -31 c-3
-3 -12 -4 -19 -1 -8 3 -5 6 6 6 11 1 17 -2 13 -5z m14 -91 c-12 -20 -14 -14
-5 12 4 9 9 14 11 11 3 -2 0 -13 -6 -23z m37 -88 c0 -5 -6 4 -13 20 -8 17 -14
37 -14 45 0 8 7 -1 14 -20 7 -19 13 -39 13 -45z m-41 -17 c-2 -13 -4 -5 -4 17
-1 22 1 32 4 23 2 -10 2 -28 0 -40z m20 -10 c-3 -7 -5 -2 -5 12 0 14 2 19 5
13 2 -7 2 -19 0 -25z m43 -28 c0 -13 -1 -13 -10 0 -5 8 -10 22 -10 30 0 13 1
13 10 0 5 -8 10 -22 10 -30z m75 -248 c-2 -2 -14 28 -26 67 -12 38 -25 68 -28
67 -3 -2 -7 15 -7 38 -2 34 4 22 32 -64 18 -57 31 -106 29 -108z m-52 73 c-3
-9 -8 -14 -10 -11 -3 3 -2 9 2 15 9 16 15 13 8 -4z m26 -65 c1 -13 0 -13 -9 0
-5 8 -9 24 -9 35 l0 20 9 -20 c5 -11 9 -27 9 -35z m80 -165 c0 -5 -4 -3 -9 5
-5 8 -9 22 -9 30 0 16 17 -16 18 -35z m-19 -55 c0 -16 -4 -30 -8 -30 -5 0 -7
14 -4 30 2 17 6 30 8 30 2 0 4 -13 4 -30z m44 -29 c-7 -7 -12 3 -18 34 l-6 30
14 -30 c8 -16 12 -32 10 -34z m63 -203 c-3 -8 -6 -5 -6 6 -1 11 2 17 5 13 3
-3 4 -12 1 -19z m63 -196 c-6 -2 -10 -11 -11 -20 0 -14 -2 -13 -9 3 -12 27
-12 43 0 25 8 -12 10 -12 10 5 0 17 2 17 10 5 6 -10 6 -16 0 -18z m88 -257 c0
-5 -6 4 -13 20 -8 17 -14 37 -14 45 0 8 7 -1 14 -20 7 -19 13 -39 13 -45z m32
-110 c0 -5 -5 -3 -10 5 -5 8 -10 20 -10 25 0 6 5 3 10 -5 5 -8 10 -19 10 -25z
m70 -204 c0 -32 -6 -24 -14 19 -4 25 -3 31 4 20 5 -8 10 -26 10 -39z m-33 7
c-3 -8 -6 -5 -6 6 -1 11 2 17 5 13 3 -3 4 -12 1 -19z m110 -260 c-3 -8 -6 -5
-6 6 -1 11 2 17 5 13 3 -3 4 -12 1 -19z m80 -260 c-3 -8 -6 -5 -6 6 -1 11 2
17 5 13 3 -3 4 -12 1 -19z m47 -94 c3 -8 2 -12 -4 -9 -6 3 -10 10 -10 16 0 14
7 11 14 -7z m-994 -1334 c-18 -11 -37 -3 -37 15 0 21 15 19 20 -2 3 -13 5 -10
6 7 1 23 3 23 12 6 9 -14 8 -20 -1 -26z m-85 7 c-4 -16 0 -29 14 -41 12 -11
21 -27 21 -38 0 -22 -8 -23 -30 -3 -10 9 -40 17 -69 19 -30 1 -46 -1 -39 -5 7
-5 27 -9 43 -9 17 0 41 -7 53 -16 15 -10 32 -13 52 -9 17 4 30 2 30 -3 0 -16
-81 -20 -87 -5 -3 7 -17 13 -32 12 -25 0 -25 0 -3 -9 12 -5 22 -13 22 -19 0
-5 9 -11 20 -14 11 -3 20 -1 20 4 0 9 48 5 58 -6 5 -5 -21 -9 -48 -6 -11 1
-10 -2 4 -10 13 -8 25 -8 42 0 13 6 24 7 24 2 0 -4 -10 -13 -23 -18 -19 -9
-28 -7 -48 8 -13 10 -28 19 -33 19 -12 0 -96 68 -118 94 -18 22 -15 38 6 30 7
-3 16 2 19 10 9 22 44 20 50 -1 3 -11 5 -7 6 10 1 22 6 27 26 27 21 0 24 -4
20 -23z m90 -187 c-3 -5 -12 -10 -18 -10 -7 0 -6 4 3 10 19 12 23 12 15 0z
m92 -62 c36 -20 53 -24 56 -15 2 7 8 8 13 3 5 -5 4 -11 -4 -13 -6 -3 -10 -9
-7 -13 7 -11 -106 48 -120 62 -13 14 -3 9 62 -24z m45 12 c9 0 9 3 -2 10 -17
11 -10 13 14 4 14 -5 14 -7 0 -21 -12 -13 -20 -13 -40 -5 -13 7 -24 16 -24 22
0 7 6 8 19 0 11 -5 26 -10 33 -10z m64 -76 c18 -14 18 -14 -6 -3 -31 14 -36
19 -24 19 6 0 19 -7 30 -16z m74 -5 l25 -20 -30 14 c-16 8 -37 17 -45 20 -11
4 -9 6 5 6 11 0 31 -9 45 -20z m45 3 c-3 -3 -11 0 -18 7 -9 10 -8 11 6 5 10
-3 15 -9 12 -12z m-45 -28 l25 -15 -25 7 c-14 3 -32 10 -40 15 -13 7 -13 8 0
8 8 0 26 -6 40 -15z m50 -4 c0 -5 -5 -10 -11 -10 -5 0 -7 5 -4 10 3 6 8 10 11
10 2 0 4 -4 4 -10z m83 -53 c-2 -4 8 -5 24 -2 26 5 26 5 5 -5 -17 -7 -31 -6
-50 4 l-27 14 27 -1 c14 -1 24 -6 21 -10z m117 -37 c0 -5 -2 -10 -4 -10 -3 0
-8 5 -11 10 -3 6 -1 10 4 10 6 0 11 -4 11 -10z m87 -36 c-3 -3 -12 -4 -19 -1
-8 3 -5 6 6 6 11 1 17 -2 13 -5z m80 0 c-3 -3 -12 -4 -19 -1 -8 3 -5 6 6 6 11
1 17 -2 13 -5z m-37 -14 c8 -5 11 -10 5 -10 -5 0 -17 5 -25 10 -8 5 -10 10 -5
10 6 0 17 -5 25 -10z m67 -16 c-3 -3 -12 -4 -19 -1 -8 3 -5 6 6 6 11 1 17 -2
13 -5z m80 -20 c-3 -3 -12 -4 -19 -1 -8 3 -5 6 6 6 11 1 17 -2 13 -5z m226
-41 c-7 -2 -19 -2 -25 0 -7 3 -2 5 12 5 14 0 19 -2 13 -5z m174 -19 c-3 -3
-12 -4 -19 -1 -8 3 -5 6 6 6 11 1 17 -2 13 -5z"/>
<path d="M12327 29919 c-10 -6 -40 -14 -65 -19 -39 -6 -41 -8 -15 -9 18 0 50
5 70 13 21 8 47 17 58 19 16 4 15 5 -5 6 -14 0 -33 -4 -43 -10z"/>
<path d="M12070 29820 c-11 -8 -7 -9 15 -4 37 8 45 14 19 14 -10 0 -26 -5 -34
-10z"/>
<path d="M11785 29740 c3 -5 13 -10 21 -10 8 0 12 5 9 10 -3 6 -13 10 -21 10
-8 0 -12 -4 -9 -10z"/>
<path d="M11576 29664 c-11 -8 -16 -14 -10 -14 13 0 39 18 34 24 -3 2 -14 -2
-24 -10z"/>
<path d="M11458 29603 c7 -3 16 -2 19 1 4 3 -2 6 -13 5 -11 0 -14 -3 -6 -6z"/>
<path d="M11305 29500 c-19 -8 -19 -9 2 -9 12 -1 25 4 28 9 7 12 -2 12 -30 0z"/>
<path d="M11168 29443 c7 -3 16 -2 19 1 4 3 -2 6 -13 5 -11 0 -14 -3 -6 -6z"/>
<path d="M10878 29273 c7 -3 16 -2 19 1 4 3 -2 6 -13 5 -11 0 -14 -3 -6 -6z"/>
<path d="M10925 29261 c-6 -5 -21 -11 -35 -14 l-25 -4 26 -2 c15 0 32 6 39 14
14 16 10 21 -5 6z"/>
<path d="M10675 29120 c-3 -5 -1 -10 4 -10 6 0 11 5 11 10 0 6 -2 10 -4 10 -3
0 -8 -4 -11 -10z"/>
<path d="M10711 29104 c0 -11 3 -14 6 -6 3 7 2 16 -1 19 -3 4 -6 -2 -5 -13z"/>
<path d="M10610 29096 c0 -2 7 -7 16 -10 8 -3 12 -2 9 4 -6 10 -25 14 -25 6z"/>
<path d="M10675 29090 c-3 -5 1 -10 10 -10 9 0 13 5 10 10 -3 6 -8 10 -10 10
-2 0 -7 -4 -10 -10z"/>
<path d="M10305 28820 c-3 -5 -1 -10 4 -10 6 0 11 5 11 10 0 6 -2 10 -4 10 -3
0 -8 -4 -11 -10z"/>
<path d="M10199 28713 c-13 -16 -12 -17 4 -4 9 7 17 15 17 17 0 8 -8 3 -21
-13z"/>
<path d="M10145 28660 c-3 -5 -1 -10 4 -10 6 0 11 5 11 10 0 6 -2 10 -4 10 -3
0 -8 -4 -11 -10z"/>
<path d="M9618 28009 c-10 -10 -13 -19 -7 -19 11 0 39 24 39 34 0 11 -15 4
-32 -15z"/>
<path d="M9647 27993 c-4 -3 -7 -11 -7 -17 0 -6 5 -5 12 2 6 6 9 14 7 17 -3 3
-9 2 -12 -2z"/>
<path d="M9587 27966 c-4 -10 1 -12 14 -9 23 6 24 9 5 16 -8 3 -17 0 -19 -7z"/>
<path d="M9406 27655 c-9 -14 -13 -25 -9 -25 10 0 36 40 30 46 -2 3 -12 -7
-21 -21z"/>
<path d="M9380 27599 c0 -5 5 -7 10 -4 6 3 10 8 10 11 0 2 -4 4 -10 4 -5 0
-10 -5 -10 -11z"/>
<path d="M9316 27475 c-3 -9 -6 -22 -5 -28 0 -7 5 -1 10 12 5 13 8 26 5 28 -2
2 -6 -3 -10 -12z"/>
<path d="M9338 27445 c-6 -30 -2 -32 12 -6 6 11 6 22 1 25 -5 3 -11 -5 -13
-19z"/>
<path d="M12443 27439 c-24 -12 -43 -25 -43 -30 0 -13 9 -11 26 6 9 8 24 15
33 15 10 0 24 7 31 15 17 21 3 19 -47 -6z"/>
<path d="M12280 27390 c-13 -8 -12 -10 3 -10 9 0 17 5 17 10 0 12 -1 12 -20 0z"/>
<path d="M12348 27393 c7 -3 16 -2 19 1 4 3 -2 6 -13 5 -11 0 -14 -3 -6 -6z"/>
<path d="M12300 27366 c-29 -13 -75 -56 -60 -56 6 0 18 9 27 20 10 11 25 20
35 20 9 0 20 5 23 11 10 16 3 17 -25 5z"/>
<path d="M12167 27301 c4 -3 10 -9 13 -13 3 -3 13 -1 22 6 15 11 14 13 -12 13
-17 0 -27 -3 -23 -6z"/>
<path d="M9227 27280 c-3 -11 -2 -20 3 -20 4 0 10 9 13 20 3 11 2 20 -3 20 -4
0 -10 -9 -13 -20z"/>
<path d="M9261 27274 c0 -11 3 -14 6 -6 3 7 2 16 -1 19 -3 4 -6 -2 -5 -13z"/>
<path d="M12015 27200 c-3 -5 1 -10 10 -10 9 0 13 5 10 10 -3 6 -8 10 -10 10
-2 0 -7 -4 -10 -10z"/>
<path d="M9156 27105 c-9 -26 -7 -32 5 -12 6 10 9 21 6 23 -2 3 -7 -2 -11 -11z"/>
<path d="M9157 27063 c-4 -3 -7 -11 -7 -17 0 -6 5 -5 12 2 6 6 9 14 7 17 -3 3
-9 2 -12 -2z"/>
<path d="M11870 27055 c-11 -13 -10 -14 4 -9 9 3 16 10 16 15 0 13 -6 11 -20
-6z"/>
<path d="M11795 26990 c-3 -6 1 -7 9 -4 18 7 21 14 7 14 -6 0 -13 -4 -16 -10z"/>
<path d="M9096 26925 c-9 -26 -7 -32 5 -12 6 10 9 21 6 23 -2 3 -7 -2 -11 -11z"/>
<path d="M9075 26860 c-4 -17 -5 -34 -2 -36 2 -3 7 10 11 27 8 42 0 50 -9 9z"/>
<path d="M9101 26874 c0 -11 3 -14 6 -6 3 7 2 16 -1 19 -3 4 -6 -2 -5 -13z"/>
<path d="M11600 26811 c0 -6 4 -13 10 -16 6 -3 7 1 4 9 -7 18 -14 21 -14 7z"/>
<path d="M9090 26799 c0 -5 5 -7 10 -4 6 3 10 8 10 11 0 2 -4 4 -10 4 -5 0
-10 -5 -10 -11z"/>
<path d="M9080 26770 c0 -5 5 -10 10 -10 6 0 10 5 10 10 0 6 -4 10 -10 10 -5
0 -10 -4 -10 -10z"/>
<path d="M11550 26729 c0 -5 5 -7 10 -4 6 3 10 8 10 11 0 2 -4 4 -10 4 -5 0
-10 -5 -10 -11z"/>
<path d="M9018 26650 c-3 -19 -9 -44 -12 -55 -4 -11 1 -5 9 14 9 18 15 43 13
55 -3 15 -5 11 -10 -14z"/>
<path d="M11483 26635 c-9 -24 1 -27 15 -5 8 13 8 20 2 20 -6 0 -13 -7 -17
-15z"/>
<path d="M9022 26570 c0 -14 2 -19 5 -12 2 6 2 18 0 25 -3 6 -5 1 -5 -13z"/>
<path d="M8991 26544 c0 -11 3 -14 6 -6 3 7 2 16 -1 19 -3 4 -6 -2 -5 -13z"/>
<path d="M8932 26225 c0 -16 2 -22 5 -12 2 9 2 23 0 30 -3 6 -5 -1 -5 -18z"/>
<path d="M8952 26200 c0 -14 2 -19 5 -12 2 6 2 18 0 25 -3 6 -5 1 -5 -13z"/>
<path d="M8942 26140 c0 -14 2 -19 5 -12 2 6 2 18 0 25 -3 6 -5 1 -5 -13z"/>
<path d="M8913 26090 c0 -30 2 -43 4 -27 2 15 2 39 0 55 -2 15 -4 2 -4 -28z"/>
<path d="M11140 26025 c0 -8 2 -15 4 -15 2 0 6 7 10 15 3 8 1 15 -4 15 -6 0
-10 -7 -10 -15z"/>
<path d="M8931 26014 c0 -11 3 -14 6 -6 3 7 2 16 -1 19 -3 4 -6 -2 -5 -13z"/>
<path d="M11151 25987 c-6 -8 -9 -21 -5 -30 3 -8 1 -18 -5 -22 -6 -3 -10 -18
-10 -33 l2 -27 4 25 c3 14 9 30 15 37 5 7 7 17 3 24 -4 6 -1 15 6 20 7 4 11
11 8 14 -4 3 -11 -1 -18 -8z"/>
<path d="M11122 25970 c0 -14 2 -19 5 -12 2 6 2 18 0 25 -3 6 -5 1 -5 -13z"/>
<path d="M11040 25680 c0 -8 5 -22 10 -30 9 -13 10 -13 10 0 0 8 -5 22 -10 30
-9 13 -10 13 -10 0z"/>
<path d="M11072 25660 c0 -14 2 -19 5 -12 2 6 2 18 0 25 -3 6 -5 1 -5 -13z"/>
<path d="M11050 25606 c0 -9 5 -16 10 -16 6 0 10 4 10 9 0 6 -4 13 -10 16 -5
3 -10 -1 -10 -9z"/>
<path d="M8901 25064 c0 -11 3 -14 6 -6 3 7 2 16 -1 19 -3 4 -6 -2 -5 -13z"/>
<path d="M8932 25060 c0 -14 2 -19 5 -12 2 6 2 18 0 25 -3 6 -5 1 -5 -13z"/>
<path d="M8952 25060 c0 -14 2 -19 5 -12 2 6 2 18 0 25 -3 6 -5 1 -5 -13z"/>
<path d="M8941 24924 c0 -11 3 -14 6 -6 3 7 2 16 -1 19 -3 4 -6 -2 -5 -13z"/>
<path d="M11042 24920 c0 -14 2 -19 5 -12 2 6 2 18 0 25 -3 6 -5 1 -5 -13z"/>
<path d="M8921 24904 c0 -11 3 -14 6 -6 3 7 2 16 -1 19 -3 4 -6 -2 -5 -13z"/>
<path d="M11051 24854 c0 -11 3 -14 6 -6 3 7 2 16 -1 19 -3 4 -6 -2 -5 -13z"/>
<path d="M11052 24810 c0 -14 2 -19 5 -12 2 6 2 18 0 25 -3 6 -5 1 -5 -13z"/>
<path d="M11046 24755 c8 -37 14 -45 14 -19 0 10 -5 26 -10 34 -8 11 -9 7 -4
-15z"/>
<path d="M11072 24755 c0 -16 2 -22 5 -12 2 9 2 23 0 30 -3 6 -5 -1 -5 -18z"/>
<path d="M11082 24680 c0 -14 4 -38 8 -55 7 -27 8 -27 8 -5 0 14 -4 39 -8 55
-7 27 -8 27 -8 5z"/>
<path d="M11062 24630 c0 -19 2 -27 5 -17 2 9 2 25 0 35 -3 9 -5 1 -5 -18z"/>
<path d="M8982 24575 c0 -16 2 -22 5 -12 2 9 2 23 0 30 -3 6 -5 -1 -5 -18z"/>
<path d="M9012 24565 c0 -16 2 -22 5 -12 2 9 2 23 0 30 -3 6 -5 -1 -5 -18z"/>
<path d="M11136 24475 c13 -73 17 -85 24 -85 8 0 1 32 -21 90 -8 23 -8 22 -3
-5z"/>
<path d="M9031 24454 c0 -11 3 -14 6 -6 3 7 2 16 -1 19 -3 4 -6 -2 -5 -13z"/>
<path d="M9026 24397 c3 -10 9 -15 12 -12 3 3 0 11 -7 18 -10 9 -11 8 -5 -6z"/>
<path d="M9084 24244 c-3 -19 -3 -39 2 -44 5 -5 10 10 10 36 2 53 -3 56 -12 8z"/>
<path d="M11225 24165 c0 -24 3 -39 7 -32 10 16 10 64 1 70 -5 3 -8 -15 -8
-38z"/>
<path d="M9111 24114 c0 -11 3 -14 6 -6 3 7 2 16 -1 19 -3 4 -6 -2 -5 -13z"/>
<path d="M11281 24034 c0 -11 3 -14 6 -6 3 7 2 16 -1 19 -3 4 -6 -2 -5 -13z"/>
<path d="M9182 23980 c0 -14 2 -19 5 -12 2 6 2 18 0 25 -3 6 -5 1 -5 -13z"/>
<path d="M11280 23890 c0 -5 5 -10 11 -10 5 0 7 5 4 10 -3 6 -8 10 -11 10 -2
0 -4 -4 -4 -10z"/>
<path d="M9266 23694 c-4 -14 -5 -28 -3 -31 3 -2 8 8 11 23 4 14 5 28 3 31 -3
2 -8 -8 -11 -23z"/>
<path d="M11382 23700 c0 -14 2 -19 5 -12 2 6 2 18 0 25 -3 6 -5 1 -5 -13z"/>
<path d="M11371 23654 c0 -11 3 -14 6 -6 3 7 2 16 -1 19 -3 4 -6 -2 -5 -13z"/>
<path d="M9266 23637 c3 -10 9 -15 12 -12 3 3 0 11 -7 18 -10 9 -11 8 -5 -6z"/>
<path d="M9332 23540 c7 -10 14 -18 15 -16 6 6 -9 36 -18 36 -5 0 -4 -9 3 -20z"/>
<path d="M11451 23490 c0 -8 4 -24 9 -35 5 -13 9 -14 9 -5 0 8 -4 24 -9 35 -5
13 -9 14 -9 5z"/>
<path d="M9326 23481 c-3 -5 1 -22 10 -37 15 -27 15 -27 9 -4 -3 14 -7 31 -7
38 -2 14 -5 15 -12 3z"/>
<path d="M11446 23405 c-3 -9 -5 -29 -5 -43 1 -20 3 -17 9 13 8 43 7 57 -4 30z"/>
<path d="M11471 23374 c0 -11 3 -14 6 -6 3 7 2 16 -1 19 -3 4 -6 -2 -5 -13z"/>
<path d="M9412 23295 c0 -16 2 -22 5 -12 2 9 2 23 0 30 -3 6 -5 -1 -5 -18z"/>
<path d="M11525 23270 c19 -77 24 -93 34 -103 7 -7 7 1 -1 24 -18 55 -39 106
-33 79z"/>
<path d="M9425 23220 c-3 -5 -1 -10 4 -10 6 0 11 5 11 10 0 6 -2 10 -4 10 -3
0 -8 -4 -11 -10z"/>
<path d="M11527 23168 c-2 -7 -1 -22 3 -33 6 -16 8 -13 7 13 0 35 -2 39 -10
20z"/>
<path d="M9481 23064 c0 -11 3 -14 6 -6 3 7 2 16 -1 19 -3 4 -6 -2 -5 -13z"/>
<path d="M9500 22995 c0 -5 5 -17 10 -25 5 -8 10 -10 10 -5 0 6 -5 17 -10 25
-5 8 -10 11 -10 5z"/>
<path d="M11612 22860 c0 -14 2 -19 5 -12 2 6 2 18 0 25 -3 6 -5 1 -5 -13z"/>
<path d="M11661 22854 c0 -11 3 -14 6 -6 3 7 2 16 -1 19 -3 4 -6 -2 -5 -13z"/>
<path d="M9531 22824 c0 -11 3 -14 6 -6 3 7 2 16 -1 19 -3 4 -6 -2 -5 -13z"/>
<path d="M9582 22820 c0 -14 2 -19 5 -12 2 6 2 18 0 25 -3 6 -5 1 -5 -13z"/>
<path d="M9662 22545 c0 -16 2 -22 5 -12 2 9 2 23 0 30 -3 6 -5 -1 -5 -18z"/>
<path d="M9641 22496 c7 -15 15 -23 17 -16 3 7 -3 19 -13 28 -15 16 -16 15 -4
-12z"/>
<path d="M11770 22470 c-9 -6 -10 -10 -3 -10 6 0 15 5 18 10 8 12 4 12 -15 0z"/>
<path d="M9661 22434 c0 -11 3 -14 6 -6 3 7 2 16 -1 19 -3 4 -6 -2 -5 -13z"/>
<path d="M11771 22424 c0 -11 3 -14 6 -6 3 7 2 16 -1 19 -3 4 -6 -2 -5 -13z"/>
<path d="M11801 22424 c0 -11 3 -14 6 -6 3 7 2 16 -1 19 -3 4 -6 -2 -5 -13z"/>
<path d="M11770 22370 c0 -5 5 -10 11 -10 5 0 7 5 4 10 -3 6 -8 10 -11 10 -2
0 -4 -4 -4 -10z"/>
<path d="M9721 22304 c0 -11 3 -14 6 -6 3 7 2 16 -1 19 -3 4 -6 -2 -5 -13z"/>
<path d="M11852 22260 c-1 -14 5 -34 13 -44 8 -11 15 -15 15 -10 0 6 -4 14 -9
20 -5 5 -11 20 -14 34 l-4 25 -1 -25z"/>
<path d="M9731 22224 c0 -11 3 -14 6 -6 3 7 2 16 -1 19 -3 4 -6 -2 -5 -13z"/>
<path d="M11870 22165 c0 -8 4 -15 10 -15 5 0 7 7 4 15 -4 8 -8 15 -10 15 -2
0 -4 -7 -4 -15z"/>
<path d="M9821 22024 c0 -11 3 -14 6 -6 3 7 2 16 -1 19 -3 4 -6 -2 -5 -13z"/>
<path d="M11931 22004 c0 -11 3 -14 6 -6 3 7 2 16 -1 19 -3 4 -6 -2 -5 -13z"/>
<path d="M9831 21974 c0 -11 3 -14 6 -6 3 7 2 16 -1 19 -3 4 -6 -2 -5 -13z"/>
<path d="M11951 21950 c15 -45 24 -54 15 -15 -4 17 -12 34 -17 40 -5 5 -4 -6
2 -25z"/>
<path d="M11932 21930 c0 -14 2 -19 5 -12 2 6 2 18 0 25 -3 6 -5 1 -5 -13z"/>
<path d="M9886 21771 c-4 -7 -5 -15 -2 -18 9 -9 19 4 14 18 -4 11 -6 11 -12 0z"/>
<path d="M9900 21681 c0 -5 5 -13 10 -16 6 -3 10 -2 10 4 0 5 -4 13 -10 16 -5
3 -10 2 -10 -4z"/>
<path d="M9951 21534 c0 -11 3 -14 6 -6 3 7 2 16 -1 19 -3 4 -6 -2 -5 -13z"/>
<path d="M12090 21515 c0 -5 5 -17 10 -25 5 -8 10 -10 10 -5 0 6 -5 17 -10 25
-5 8 -10 11 -10 5z"/>
<path d="M12091 21444 c0 -11 3 -14 6 -6 3 7 2 16 -1 19 -3 4 -6 -2 -5 -13z"/>
<path d="M12120 21426 c0 -8 4 -17 9 -20 5 -4 7 3 4 14 -6 23 -13 26 -13 6z"/>
<path d="M10050 21310 c0 -8 5 -22 10 -30 9 -13 10 -13 10 0 0 8 -5 22 -10 30
-9 13 -10 13 -10 0z"/>
<path d="M10030 21295 c0 -6 9 -35 20 -65 10 -30 19 -48 20 -40 0 17 -39 121
-40 105z"/>
<path d="M12160 21291 c0 -5 5 -13 10 -16 6 -3 10 -2 10 4 0 5 -4 13 -10 16
-5 3 -10 2 -10 -4z"/>
<path d="M12173 21235 c-3 -9 -3 -18 -1 -21 3 -3 8 4 11 16 6 23 -1 27 -10 5z"/>
<path d="M12192 21180 c7 -10 14 -18 15 -16 6 6 -9 36 -18 36 -5 0 -4 -9 3
-20z"/>
<path d="M10142 21030 c0 -14 2 -19 5 -12 2 6 2 18 0 25 -3 6 -5 1 -5 -13z"/>
<path d="M12273 20867 c0 -8 6 -14 14 -14 9 0 10 4 2 14 -6 7 -12 13 -14 13
-1 0 -2 -6 -2 -13z"/>
<path d="M12326 20751 c3 -36 11 -73 18 -83 13 -18 14 -18 19 3 6 20 -8 57
-27 70 -5 4 -6 11 -2 17 3 6 2 21 -3 34 -7 16 -8 4 -5 -41z"/>
<path d="M10232 20765 c0 -16 2 -22 5 -12 2 9 2 23 0 30 -3 6 -5 -1 -5 -18z"/>
<path d="M10221 20714 c0 -11 3 -14 6 -6 3 7 2 16 -1 19 -3 4 -6 -2 -5 -13z"/>
<path d="M12362 20628 c6 -18 28 -21 28 -4 0 9 -7 16 -16 16 -9 0 -14 -5 -12
-12z"/>
<path d="M12330 20615 c0 -8 5 -15 10 -15 6 0 10 7 10 15 0 8 -4 15 -10 15 -5
0 -10 -7 -10 -15z"/>
<path d="M10261 20584 c0 -11 3 -14 6 -6 3 7 2 16 -1 19 -3 4 -6 -2 -5 -13z"/>
<path d="M10312 20580 c0 -14 2 -19 5 -12 2 6 2 18 0 25 -3 6 -5 1 -5 -13z"/>
<path d="M12402 20565 c0 -31 13 -71 19 -60 3 6 0 26 -7 45 -7 20 -13 26 -12
15z"/>
<path d="M10306 20505 c-3 -9 -6 -22 -5 -28 0 -7 5 -1 10 12 5 13 8 26 5 28
-2 2 -6 -3 -10 -12z"/>
<path d="M12401 20474 c0 -11 3 -14 6 -6 3 7 2 16 -1 19 -3 4 -6 -2 -5 -13z"/>
<path d="M12420 20476 c0 -8 5 -18 10 -21 6 -3 10 1 10 9 0 8 -4 18 -10 21 -5
3 -10 -1 -10 -9z"/>
<path d="M12411 20445 c-14 -87 -6 -109 29 -84 12 8 10 9 -7 4 -22 -6 -34 9
-14 17 6 2 6 17 1 38 -4 19 -9 31 -9 25z"/>
<path d="M12440 20416 c0 -8 5 -18 10 -21 6 -3 10 1 10 9 0 8 -4 18 -10 21 -5
3 -10 -1 -10 -9z"/>
<path d="M10371 20344 c0 -11 3 -14 6 -6 3 7 2 16 -1 19 -3 4 -6 -2 -5 -13z"/>
<path d="M10351 20309 c-1 -18 20 -82 25 -77 2 2 -3 24 -11 48 -7 25 -14 38
-14 29z"/>
<path d="M10381 20294 c0 -11 3 -14 6 -6 3 7 2 16 -1 19 -3 4 -6 -2 -5 -13z"/>
<path d="M10381 20200 c0 -8 4 -24 9 -35 5 -13 9 -14 9 -5 0 8 -4 24 -9 35 -5
13 -9 14 -9 5z"/>
<path d="M10411 20104 c0 -11 3 -14 6 -6 3 7 2 16 -1 19 -3 4 -6 -2 -5 -13z"/>
<path d="M12505 20090 c-3 -5 -1 -10 4 -10 6 0 11 5 11 10 0 6 -2 10 -4 10 -3
0 -8 -4 -11 -10z"/>
<path d="M12480 20081 c0 -6 4 -13 10 -16 6 -3 7 1 4 9 -7 18 -14 21 -14 7z"/>
<path d="M10510 19876 c0 -2 7 -9 15 -16 13 -11 14 -10 9 4 -5 14 -24 23 -24
12z"/>
<path d="M10542 19820 c0 -14 2 -19 5 -12 2 6 2 18 0 25 -3 6 -5 1 -5 -13z"/>
<path d="M10632 19590 c0 -19 2 -27 5 -17 2 9 2 25 0 35 -3 9 -5 1 -5 -18z"/>
<path d="M10596 19585 c4 -8 8 -15 10 -15 2 0 4 7 4 15 0 8 -4 15 -10 15 -5 0
-7 -7 -4 -15z"/>
<path d="M10590 19555 c0 -5 5 -17 10 -25 5 -8 10 -10 10 -5 0 6 -5 17 -10 25
-5 8 -10 11 -10 5z"/>
<path d="M10621 19474 c0 -11 3 -14 6 -6 3 7 2 16 -1 19 -3 4 -6 -2 -5 -13z"/>
<path d="M10691 19344 c0 -11 3 -14 6 -6 3 7 2 16 -1 19 -3 4 -6 -2 -5 -13z"/>
<path d="M10792 19050 c0 -14 2 -19 5 -12 2 6 2 18 0 25 -3 6 -5 1 -5 -13z"/>
<path d="M10842 18800 c0 -14 2 -19 5 -12 2 6 2 18 0 25 -3 6 -5 1 -5 -13z"/>
<path d="M10920 18539 c0 -4 7 -22 15 -40 8 -19 14 -27 14 -19 0 14 -28 72
-29 59z"/>
<path d="M10991 18325 c1 -19 18 -51 18 -35 0 8 -4 22 -9 30 -5 8 -9 11 -9 5z"/>
<path d="M11020 18256 c0 -9 5 -16 10 -16 6 0 10 4 10 9 0 6 -4 13 -10 16 -5
3 -10 -1 -10 -9z"/>
<path d="M11101 18084 c0 -11 3 -14 6 -6 3 7 2 16 -1 19 -3 4 -6 -2 -5 -13z"/>
<path d="M11083 18052 c1 -14 5 -18 11 -12 7 7 6 14 -1 21 -9 9 -12 7 -10 -9z"/>
<path d="M11097 17999 c4 -13 8 -18 11 -10 2 7 -1 18 -6 23 -8 8 -9 4 -5 -13z"/>
<path d="M11178 17843 c2 -21 4 -54 4 -73 0 -33 0 -34 8 -8 8 28 2 118 -9 118
-3 0 -5 -17 -3 -37z"/>
<path d="M11220 17626 c0 -8 4 -17 9 -20 5 -4 7 3 4 14 -6 23 -13 26 -13 6z"/>
<path d="M11251 17624 c0 -11 3 -14 6 -6 3 7 2 16 -1 19 -3 4 -6 -2 -5 -13z"/>
<path d="M11251 17524 c0 -11 3 -14 6 -6 3 7 2 16 -1 19 -3 4 -6 -2 -5 -13z"/>
<path d="M11271 17444 c0 -11 3 -14 6 -6 3 7 2 16 -1 19 -3 4 -6 -2 -5 -13z"/>
<path d="M11291 17384 c0 -11 3 -14 6 -6 3 7 2 16 -1 19 -3 4 -6 -2 -5 -13z"/>
<path d="M11321 17384 c0 -11 3 -14 6 -6 3 7 2 16 -1 19 -3 4 -6 -2 -5 -13z"/>
<path d="M11317 17309 c4 -13 8 -18 11 -10 2 7 -1 18 -6 23 -8 8 -9 4 -5 -13z"/>
<path d="M11380 17125 c0 -5 5 -17 10 -25 5 -8 10 -10 10 -5 0 6 -5 17 -10 25
-5 8 -10 11 -10 5z"/>
<path d="M11504 16906 c-6 -6 -8 -29 -5 -51 l5 -40 7 50 c7 58 7 57 -7 41z"/>
<path d="M11490 16773 c0 -4 5 -15 10 -23 8 -13 10 -13 10 2 0 9 -4 20 -10 23
-5 3 -10 3 -10 -2z"/>
<path d="M11541 16653 c0 -4 4 -17 9 -28 8 -19 9 -19 9 2 1 12 -3 25 -9 28 -5
3 -10 3 -9 -2z"/>
<path d="M11586 16584 c-4 -14 -5 -28 -3 -31 3 -2 8 8 11 23 4 14 5 28 3 31
-3 2 -8 -8 -11 -23z"/>
<path d="M11661 16384 c0 -11 3 -14 6 -6 3 7 2 16 -1 19 -3 4 -6 -2 -5 -13z"/>
<path d="M11715 16310 c3 -5 8 -10 11 -10 2 0 4 5 4 10 0 6 -5 10 -11 10 -5 0
-7 -4 -4 -10z"/>
<path d="M11810 16120 c0 -5 5 -10 11 -10 5 0 7 5 4 10 -3 6 -8 10 -11 10 -2
0 -4 -4 -4 -10z"/>
<path d="M11895 16000 c3 -5 8 -10 11 -10 2 0 4 5 4 10 0 6 -5 10 -11 10 -5 0
-7 -4 -4 -10z"/>
<path d="M11980 15931 c0 -6 4 -13 10 -16 6 -3 7 1 4 9 -7 18 -14 21 -14 7z"/>
<path d="M12035 15850 c3 -5 8 -10 11 -10 2 0 4 5 4 10 0 6 -5 10 -11 10 -5 0
-7 -4 -4 -10z"/>
<path d="M12142 15770 c7 -10 14 -18 15 -16 6 6 -9 36 -18 36 -5 0 -4 -9 3
-20z"/>
<path d="M12210 15700 c0 -5 5 -10 11 -10 7 0 9 -10 7 -24 -3 -16 0 -27 9 -30
9 -4 11 -1 7 5 -4 6 0 15 7 20 11 6 9 12 -8 29 -25 22 -33 25 -33 10z"/>
<path d="M12300 15609 c-11 -8 -12 -12 -2 -16 6 -2 12 -11 12 -18 0 -22 37
-38 58 -26 14 9 11 10 -15 11 -32 0 -37 7 -36 48 1 14 2 14 -17 1z"/>
<path d="M12380 15540 c-8 -5 -11 -12 -7 -16 4 -4 13 -2 19 4 15 15 7 24 -12
12z"/>
<path d="M12525 27490 c3 -5 8 -10 11 -10 2 0 4 5 4 10 0 6 -5 10 -11 10 -5 0
-7 -4 -4 -10z"/>
<path d="M12555 27480 c-3 -5 -1 -10 4 -10 6 0 11 5 11 10 0 6 -2 10 -4 10 -3
0 -8 -4 -11 -10z"/>
<path d="M12475 15490 c-3 -5 -1 -10 4 -10 6 0 11 5 11 10 0 6 -2 10 -4 10 -3
0 -8 -4 -11 -10z"/>
</g>
</svg>
